HIERARCHY
ROOT Hips
{
 OFFSET 0.000000 0.000000 0.000000
 CHANNELS 6 Xposition Yposition Zposition Yrotation Xrotation Zrotation
 JOINT Chest
 {
  OFFSET 0.000000 9.588913 -0.003946
  CHANNELS 3 Yrotation Xrotation Zrotation
  JOINT Chest2
  {
   OFFSET 0.000000 9.541882 0.008053
   CHANNELS 3 Yrotation Xrotation Zrotation
   JOINT Chest3
   {
    OFFSET 0.000000 9.501360 0.000000
    CHANNELS 3 Yrotation Xrotation Zrotation
    JOINT Chest4
    {
     OFFSET 0.000000 9.491660 0.000000
     CHANNELS 3 Yrotation Xrotation Zrotation
     JOINT Neck
     {
      OFFSET 0.000000 14.331917 0.000000
      CHANNELS 3 Yrotation Xrotation Zrotation
      JOINT Head
      {
       OFFSET 0.000000 8.884799 0.017034
       CHANNELS 3 Yrotation Xrotation Zrotation
       End Site
       {
        OFFSET 0.000000 16.896195 0.008993
       }
      }
     }
     JOINT RightCollar
     {
      OFFSET -2.923010 9.499495 0.000000
      CHANNELS 3 Yrotation Xrotation Zrotation
      JOINT RightShoulder
      {
       OFFSET -13.795216 0.000000 0.000000
       CHANNELS 3 Yrotation Xrotation Zrotation
       JOINT RightElbow
       {
        OFFSET -30.272209 0.000000 0.000000
        CHANNELS 3 Yrotation Xrotation Zrotation
        JOINT RightWrist
        {
         OFFSET -24.478199 0.000000 0.000000
         CHANNELS 3 Yrotation Xrotation Zrotation
         End Site
         {
          OFFSET -18.090752 0.000000 0.000000
         }
        }
       }
      }
     }
     JOINT LeftCollar
     {
      OFFSET 2.923010 9.499495 0.000000
      CHANNELS 3 Yrotation Xrotation Zrotation
      JOINT LeftShoulder
      {
       OFFSET 13.795216 0.000000 0.000000
       CHANNELS 3 Yrotation Xrotation Zrotation
       JOINT LeftElbow
       {
        OFFSET 30.272209 0.000000 0.000000
        CHANNELS 3 Yrotation Xrotation Zrotation
        JOINT LeftWrist
        {
         OFFSET 24.478199 0.000000 0.000000
         CHANNELS 3 Yrotation Xrotation Zrotation
         End Site
         {
          OFFSET 18.090752 0.000000 0.000000
         }
        }
       }
      }
     }
    }
   }
  }
 }
 JOINT RightHip
 {
  OFFSET -7.826875 0.019532 0.001973
  CHANNELS 3 Yrotation Xrotation Zrotation
  JOINT RightKnee
  {
   OFFSET 0.000000 -40.546152 -0.001885
   CHANNELS 3 Yrotation Xrotation Zrotation
   JOINT RightAnkle
   {
    OFFSET 0.000000 -39.417092 -0.003189
    CHANNELS 3 Yrotation Xrotation Zrotation
    JOINT RightToe
    {
     OFFSET 0.000000 -7.579396 17.243563
     CHANNELS 3 Yrotation Xrotation Zrotation
     End Site
     {
      OFFSET 0.000000 -1.500329 6.694466
     }
    }
   }
  }
 }
 JOINT LeftHip
 {
  OFFSET 7.826875 0.019532 0.001973
  CHANNELS 3 Yrotation Xrotation Zrotation
  JOINT LeftKnee
  {
   OFFSET 0.000000 -40.546152 -0.001885
   CHANNELS 3 Yrotation Xrotation Zrotation
   JOINT LeftAnkle
   {
    OFFSET 0.000000 -39.417092 -0.003189
    CHANNELS 3 Yrotation Xrotation Zrotation
    JOINT LeftToe
    {
     OFFSET 0.000000 -7.579396 17.243563
     CHANNELS 3 Yrotation Xrotation Zrotation
     End Site
     {
      OFFSET 0.000000 -1.500329 6.694466
     }
    }
   }
  }
 }
}
MOTION
Frames: 13
Frame Time: 0.008333
0.000000 87.345680 0.000000 0.000000 -5.767889 0.000000 0.000000 11.653876 0.000000 0.000000 -5.885988 0.000000 0.000000 -0.000000 0.000000 0.000000 -0.000000 0.000000 0.000000 12.528808 0.000000 0.000000 0.711711 0.000000 0.000000 -0.000000 0.000000 0.000000 -0.000000 0.000000 2.309063 -0.000000 0.000000 -2.309063 -0.000000 -0.000000 0.000000 -0.000000 0.000000 0.000000 0.000000 0.000000 -2.309063 0.000000 0.000000 2.309063 -0.000000 0.000000 0.000000 8.520374 0.000000 0.000000 1.905768 0.000000 -0.000000 -4.658254 0.000000 0.000000 -0.000000 0.000000 0.000000 8.520374 0.000000 0.000000 1.905768 0.000000 -0.000000 -4.658254 0.000000 0.000000 -0.000000 0.000000
3.981682 89.090511 21.949172 -45.347201 -6.323841 -0.609926 3.420379 5.523749 1.061590 0.131192 0.215529 0.044299 0.231066 0.379354 0.078316 3.259375 5.230254 1.225497 8.506610 22.842429 0.724785 15.140268 6.917575 -0.898526 -0.440347 1.692075 -1.648754 -11.171917 1.740961 89.448863 4.607100 -9.924407 0.463525 0.874641 -17.428754 2.450276 -5.321001 1.465513 -0.284991 7.251857 -3.621708 -89.320548 -1.791843 1.131681 0.346616 1.264647 2.155399 -0.883857 -12.108977 9.622890 -6.255288 18.937176 2.664897 -2.521667 11.698319 -7.126966 2.757486 0.075343 -0.314641 0.027780 13.695857 7.707809 3.614225 5.977077 0.088048 -0.673431 4.381020 -2.971035 0.187026 0.016281 0.327619 0.020234
4.001045 89.089755 21.962129 -45.368223 -6.321530 -0.617877 3.425929 5.530298 1.051412 0.131652 0.216047 0.044266 0.231867 0.380249 0.078256 3.266194 5.235653 1.223639 8.498383 22.843101 0.727581 15.124683 6.917848 -0.891373 -0.435814 1.695802 -1.647682 -11.180059 1.744791 89.443236 4.604057 -9.905386 0.464285 0.872389 -17.433647 2.454193 -5.345445 1.462609 -0.277036 7.262220 -3.627209 -89.302978 -1.802877 1.127726 0.337270 1.263816 2.154575 -0.889480 -12.110369 9.600973 -6.260064 18.945202 2.684945 -2.528680 11.722434 -7.135321 2.780633 0.069820 -0.317239 0.026128 13.708021 7.703096 3.610969 5.974474 0.095283 -0.684094 4.392409 -2.982956 0.203897 0.013446 0.330828 0.020925
4.023995 89.088816 21.977607 -45.388801 -6.317772 -0.625983 3.431839 5.535235 1.041926 0.132089 0.216440 0.044207 0.232626 0.380926 0.078151 3.273171 5.239323 1.221396 8.490445 22.845461 0.730546 15.109504 6.921246 -0.883813 -0.434151 1.701011 -1.646460 -11.185159 1.748970 89.437461 4.598215 -9.882764 0.466991 0.868836 -17.435356 2.457152 -5.369134 1.461570 -0.269531 7.269834 -3.632754 -89.285715 -1.816915 1.121248 0.325850 1.264031 2.154425 -0.892046 -12.112324 9.577206 -6.264524 18.951913 2.706632 -2.536335 11.733883 -7.144409 2.806692 0.064507 -0.319536 0.024002 13.714867 7.699489 3.601607 5.969564 0.097791 -0.691537 4.412392 -2.993338 0.219841 0.011936 0.334134 0.023552
4.049736 89.087705 21.995154 -45.410971 -6.312500 -0.633904 3.439864 5.538664 1.034370 0.132572 0.216772 0.044143 0.233469 0.381498 0.078037 3.281451 5.241809 1.219127 8.482701 22.849724 0.732917 15.094750 6.928248 -0.877167 -0.435728 1.707397 -1.648361 -11.184732 1.753267 89.434362 4.591961 -9.862680 0.469137 0.864993 -17.431941 2.458593 -5.391691 1.459688 -0.263566 7.275452 -3.637065 -89.268929 -1.832752 1.117028 0.312169 1.262307 2.152678 -0.891031 -12.108968 9.550495 -6.269414 18.956460 2.730669 -2.543313 11.739038 -7.154079 2.833900 0.059887 -0.321690 0.022362 13.719465 7.696224 3.587335 5.965570 0.097571 -0.695098 4.432793 -3.003165 0.234679 0.011241 0.337532 0.026566
4.077441 89.086436 22.014361 -45.433847 -6.306027 -0.641570 3.448770 5.541714 1.028379 0.133063 0.217104 0.044078 0.234325 0.382068 0.077922 3.289876 5.244230 1.216840 8.475053 22.854812 0.735082 15.080191 6.936811 -0.870828 -0.438032 1.713765 -1.654960 -11.182305 1.756624 89.434579 4.584957 -9.843621 0.471410 0.860730 -17.427173 2.461228 -5.413602 1.455288 -0.259977 7.282959 -3.638893 -89.253350 -1.851494 1.116262 0.298065 1.259115 2.149138 -0.889332 -12.101325 9.521160 -6.277274 18.961741 2.755291 -2.547317 11.744802 -7.164090 2.859934 0.057459 -0.323658 0.022212 13.723051 7.694348 3.570472 5.966612 0.093249 -0.699194 4.448926 -3.011906 0.253447 0.010981 0.341314 0.027680
4.106186 89.085035 22.034872 -45.459368 -6.299723 -0.649895 3.459107 5.545261 1.023226 0.133604 0.217480 0.044002 0.235268 0.382715 0.077787 3.299080 5.247079 1.214187 8.467193 22.859635 0.738232 15.065003 6.944752 -0.862697 -0.440112 1.718670 -1.661858 -11.178462 1.760744 89.435563 4.577741 -9.826983 0.472444 0.854955 -17.424147 2.467851 -5.435867 1.451593 -0.256965 7.292990 -3.641739 -89.239157 -1.872257 1.114866 0.283996 1.256310 2.146719 -0.888252 -12.091621 9.491415 -6.287949 18.970199 2.778561 -2.547152 11.751642 -7.173450 2.883904 0.057163 -0.325533 0.023126 13.730448 7.694509 3.554438 5.973306 0.086252 -0.706557 4.460038 -3.021512 0.276446 0.011018 0.346117 0.027831
4.135371 89.083519 22.056482 -45.488987 -6.294804 -0.659312 3.470720 5.549609 1.018218 0.134224 0.217908 0.043941 0.236349 0.383450 0.077679 3.309627 5.250211 1.211806 8.459669 22.864012 0.742189 15.050229 6.951804 -0.853251 -0.441868 1.721438 -1.666516 -11.171820 1.766849 89.435630 4.570507 -9.810368 0.470652 0.850034 -17.425317 2.476903 -5.454368 1.449516 -0.252116 7.301530 -3.648448 -89.227255 -1.890525 1.113127 0.271118 1.253594 2.144990 -0.886502 -12.081893 9.462574 -6.299513 18.980440 2.801343 -2.545413 11.760727 -7.182471 2.907851 0.056460 -0.327469 0.023677 13.746457 7.697049 3.541404 5.982886 0.078369 -0.716282 4.462808 -3.033664 0.300264 0.010962 0.352009 0.028561
4.164968 89.081852 22.078757 -45.520233 -6.289569 -0.670551 3.481977 5.553799 1.014148 0.134848 0.218335 0.043950 0.237438 0.384185 0.077694 3.320231 5.253143 1.211085 8.452842 22.868090 0.746178 15.036716 6.958354 -0.843955 -0.442992 1.722903 -1.671073 -11.163042 1.773990 89.433460 4.562920 -9.792304 0.470561 0.846953 -17.429988 2.483043 -5.467265 1.444193 -0.247129 7.306881 -3.655151 -89.218129 -1.905372 1.112440 0.260749 1.250270 2.141565 -0.882783 -12.074715 9.433894 -6.309804 18.992154 2.822868 -2.545138 11.773242 -7.190865 2.933362 0.055293 -0.329704 0.023723 13.768907 7.699937 3.532174 5.990252 0.069349 -0.728742 4.459777 -3.048100 0.325246 0.010374 0.358944 0.029275
4.195063 89.080026 22.101457 -45.549548 -6.283059 -0.684063 3.492905 5.556945 1.011707 0.135448 0.218744 0.043984 0.238482 0.384888 0.077752 3.330380 5.255881 1.210993 8.446784 22.871831 0.750471 15.024524 6.964306 -0.834343 -0.443799 1.724184 -1.674415 -11.155228 1.781418 89.428696 4.555970 -9.780039 0.474533 0.843731 -17.430452 2.486324 -5.479906 1.435133 -0.241982 7.311716 -3.660314 -89.208551 -1.918491 1.108911 0.250846 1.245986 2.137134 -0.877855 -12.071383 9.405447 -6.317896 19.006778 2.842378 -2.546375 11.785590 -7.198089 2.958173 0.056379 -0.332564 0.025149 13.789060 7.702146 3.526029 5.995055 0.058922 -0.744275 4.456080 -3.063947 0.352431 0.009519 0.366615 0.029371
4.225618 89.078112 22.125002 -45.576138 -6.277882 -0.698146 3.503275 5.560064 1.008807 0.136012 0.219169 0.043988 0.239466 0.385618 0.077757 3.339719 5.259114 1.210184 8.442234 22.875103 0.755252 15.014943 6.969451 -0.824284 -0.444205 1.726132 -1.675177 -11.150619 1.789561 89.422813 4.550312 -9.771308 0.479921 0.839411 -17.425143 2.490732 -5.493023 1.427146 -0.234107 7.317819 -3.666918 -89.198219 -1.929926 1.102744 0.240308 1.240004 2.133238 -0.873532 -12.069758 9.379561 -6.324548 19.023138 2.862327 -2.548958 11.789656 -7.205621 2.983190 0.058410 -0.335725 0.026692 13.800567 7.706537 3.520770 6.002233 0.047863 -0.763822 4.455551 -3.080172 0.383172 0.008681 0.373906 0.028826
4.256644 89.076170 22.149440 -45.600769 -6.274929 -0.712466 3.511789 5.563634 1.005335 0.136503 0.219584 0.043983 0.240319 0.386333 0.077746 3.347550 5.262657 1.209202 8.439378 22.878299 0.759903 15.008451 6.974603 -0.814890 -0.444415 1.729258 -1.675766 -11.148600 1.797896 89.419223 4.544620 -9.754834 0.484043 0.835128 -17.422936 2.493656 -5.505452 1.421188 -0.224640 7.326790 -3.673985 -89.189683 -1.940966 1.098346 0.229244 1.233232 2.129827 -0.869685 -12.065309 9.355908 -6.332392 19.037316 2.882605 -2.552114 11.798740 -7.213797 3.009259 0.061923 -0.339637 0.028254 13.805741 7.714217 3.515290 6.011283 0.035203 -0.786507 4.461571 -3.095361 0.417060 0.007538 0.380526 0.028266
4.289953 89.074279 22.177215 -45.620526 -6.277316 -0.709242 3.514624 5.573064 0.984482 0.136895 0.219950 0.043967 0.241002 0.386963 0.077718 3.353635 5.266021 1.208094 8.437161 22.882117 0.764280 15.003158 6.980987 -0.806085 -0.445793 1.732528 -1.676643 -11.148702 1.804530 89.418128 4.536546 -9.731419 0.487701 0.832484 -17.424887 2.493183 -5.518877 1.415058 -0.216593 7.337097 -3.678985 -89.181319 -1.953218 1.094958 0.218161 1.228117 2.126854 -0.865243 -12.063678 9.334082 -6.360078 19.047471 2.902282 -2.554263 11.799654 -7.200873 3.031838 0.074400 -0.364148 0.034631 13.802282 7.735275 3.488781 6.017937 0.020109 -0.808089 4.473167 -3.135366 0.451742 0.006840 0.410170 0.029261
